<?xml version="1.0" encoding="UTF-8" standalone="no"?>
<svg
   viewBox="0 0 512 424"
   version="1.1"
   id="svg2"
   sodipodi:docname="logo.svg"
   xml:space="preserve"
   inkscape:version="1.4.2 (ebf0e940d0, 2025-05-08)"
   xmlns:inkscape="http://www.inkscape.org/namespaces/inkscape"
   xmlns:sodipodi="http://sodipodi.sourceforge.net/DTD/sodipodi-0.dtd"
   xmlns:xlink="http://www.w3.org/1999/xlink"
   xmlns="http://www.w3.org/2000/svg"
   xmlns:svg="http://www.w3.org/2000/svg"
   xmlns:rdf="http://www.w3.org/1999/02/22-rdf-syntax-ns#"
   xmlns:cc="http://creativecommons.org/ns#"
   xmlns:dc="http://purl.org/dc/elements/1.1/"><sodipodi:namedview
     id="namedview2"
     pagecolor="#505050"
     bordercolor="#eeeeee"
     borderopacity="1"
     inkscape:showpageshadow="0"
     inkscape:pageopacity="0"
     inkscape:pagecheckerboard="0"
     inkscape:deskcolor="#505050"
     inkscape:zoom="2.2757713"
     inkscape:cx="313.30038"
     inkscape:cy="228.71367"
     inkscape:window-width="1920"
     inkscape:window-height="1080"
     inkscape:window-x="0"
     inkscape:window-y="0"
     inkscape:window-maximized="1"
     inkscape:current-layer="svg2" /><defs
     id="defs1"><linearGradient
       id="linearGradient17"
       inkscape:collect="always"><stop
         style="stop-color:#949494;stop-opacity:1;"
         offset="0.3996861"
         id="stop17" /><stop
         style="stop-color:#949494;stop-opacity:0;"
         offset="0.5780161"
         id="stop18" /></linearGradient><linearGradient
       id="linearGradient15"
       inkscape:collect="always"><stop
         style="stop-color:#a2a2a2;stop-opacity:1;"
         offset="0.49568534"
         id="stop15" /><stop
         style="stop-color:#a2a2a2;stop-opacity:0;"
         offset="0.55237383"
         id="stop16" /></linearGradient><linearGradient
       id="linearGradient12"
       inkscape:collect="always"><stop
         style="stop-color:#23292f;stop-opacity:1;"
         offset="0.36181802"
         id="stop11" /><stop
         style="stop-color:#0c0c0c;stop-opacity:0;"
         offset="0.66410768"
         id="stop12" /></linearGradient><linearGradient
       id="linearGradient9"
       inkscape:collect="always"><stop
         style="stop-color:#23292f;stop-opacity:1;"
         offset="0.33649406"
         id="stop9" /><stop
         style="stop-color:#121314;stop-opacity:0;"
         offset="0.63693625"
         id="stop10" /></linearGradient><style
       id="style1">.cls-1{fill:#23292f;}</style><linearGradient
       inkscape:collect="always"
       xlink:href="#linearGradient9"
       id="linearGradient13"
       x1="255.97005"
       y1="-158.09377"
       x2="255.97005"
       y2="351.96625"
       gradientUnits="userSpaceOnUse" /><linearGradient
       inkscape:collect="always"
       xlink:href="#linearGradient12"
       id="linearGradient14"
       x1="256"
       y1="582.59375"
       x2="256"
       y2="70.59375"
       gradientUnits="userSpaceOnUse" /><linearGradient
       inkscape:collect="always"
       xlink:href="#linearGradient15"
       id="linearGradient16"
       x1="255.96983"
       y1="-159.31059"
       x2="255.96983"
       y2="353.181"
       gradientUnits="userSpaceOnUse" /><linearGradient
       inkscape:collect="always"
       xlink:href="#linearGradient17"
       id="linearGradient18"
       x1="255.99998"
       y1="583.81067"
       x2="255.99998"
       y2="69.378891"
       gradientUnits="userSpaceOnUse" /></defs><title
     id="title1">x</title><g
     id="Layer_2"
     data-name="Layer 2"
     style="stroke-width:1;stroke-dasharray:none;paint-order:stroke markers fill"
     transform="matrix(0.89281586,0,0,0.89281586,27.439141,21.421517)"><g
       id="Layer_1-2"
       data-name="Layer 1"
       style="stroke-width:1;stroke-dasharray:none;paint-order:stroke markers fill"><path
         class="cls-1"
         d="m 437,0 h 74 L 357,152.48 c -55.77,55.19 -146.19,55.19 -202,0 L 0.94,0 H 75 l 117,115.83 a 91.11,91.11 0 0 0 127.91,0 z"
         id="path1"
         style="fill:url(#linearGradient13);fill-rule:nonzero;stroke:url(#linearGradient16);stroke-width:1;stroke-dasharray:none;stroke-opacity:1;paint-order:stroke markers fill" /><path
         class="cls-1"
         d="M 74.05,424 H 0 L 155,270.58 c 55.77,-55.19 146.19,-55.19 202,0 L 512,424 H 438 L 320,307.23 a 91.11,91.11 0 0 0 -127.91,0 z"
         id="path2"
         style="fill:url(#linearGradient14);fill-rule:nonzero;stroke:url(#linearGradient18);stroke-width:1;stroke-dasharray:none;stroke-opacity:1;paint-order:stroke markers fill" /></g></g><path
     d="m 380.59941,205.73207 h -2.484 v -2.484 h -0.84 v 2.484 h -2.484 v 0.84 h 2.484 v 2.484 h 0.84 v -2.484 h 2.484 z m 7.00799,0 h -2.484 v -2.484 h -0.84 v 2.484 h -2.484 v 0.84 h 2.484 v 2.484 h 0.84 v -2.484 h 2.484 z"
     id="text15"
     style="white-space:pre;inline-size:88.528;fill:#749aad;stroke:#23292f;stroke-width:0.482519;stroke-linecap:round;stroke-linejoin:round;paint-order:stroke fill markers"
     aria-label="++"
     transform="matrix(11.641934,0,0,11.641934,-4012.5049,-2184.8112)" /><path
     d="m 326.47365,229.74246 c 15.19014,0 27.50419,2.55263 27.50419,27.50418 v 11.06377 c 0,13.36921 -5.83646,35.18287 -15.98021,43.89149 -19.13616,16.4288 -46.5222,15.34726 -81.84975,15.34726 -35.32144,0 -62.68894,1.0843 -81.79355,-15.34097 -10.12914,-8.70831 -15.9558,-30.51242 -15.9558,-43.8704 v -11.09115 c 0,-25.60231 12.31404,-27.50418 27.50417,-27.50418 z m -18.3738,-128.35207 c 27.53356,-0.0842 27.50419,6.01656 27.50419,27.50418 v 55.06448 c 0,22.99927 -2.55263,27.50417 -27.50419,27.50417 H 204.1955 c -24.95155,0 -27.50418,-6.45718 -27.50418,-27.50417 v -55.06451 c 0,-26.90383 1.25111,-26.85342 27.50418,-27.50418 34.63661,0.0543 69.26816,-0.005 103.90435,3e-5 z m -79.46483,36.67242 c -8.43417,0 -15.27142,6.83724 -15.27142,15.27142 0,8.43417 6.83725,15.27141 15.27142,15.27141 8.43415,0 15.27141,-6.83724 15.27141,-15.27141 0,-8.43418 -6.83726,-15.27142 -15.27141,-15.27142 z m 54.91958,0 c -8.43418,0 -15.27144,6.83724 -15.27144,15.27142 0,8.43417 6.83726,15.27141 15.27144,15.27141 8.43415,0 15.27141,-6.83724 15.27141,-15.27141 0,-8.43418 -6.83726,-15.27142 -15.27141,-15.27142 z"
     id="🎨-Color"
     style="fill:#749aad;fill-opacity:1;fill-rule:nonzero;stroke:#23292f;stroke-width:12.224;stroke-linecap:round;stroke-linejoin:bevel;stroke-dasharray:none;stroke-opacity:1;paint-order:markers fill stroke"
     sodipodi:nodetypes="ssssscsssscssssssccssssssssss" /><metadata
     id="metadata18"><rdf:RDF><cc:Work
         rdf:about=""><dc:title>x</dc:title></cc:Work></rdf:RDF></metadata></svg>
